<?xml version="1.0" encoding="utf-8"?>
<!-- Generator: Adobe Illustrator 22.0.1, SVG Export Plug-In . SVG Version: 6.00 Build 0)  -->
<svg version="1.1"
	 id="Layer_1" xmlns:cc="http://creativecommons.org/ns#" xmlns:dc="http://purl.org/dc/elements/1.1/" xmlns:inkscape="http://www.inkscape.org/namespaces/inkscape" xmlns:rdf="http://www.w3.org/1999/02/22-rdf-syntax-ns#" xmlns:sodipodi="http://sodipodi.sourceforge.net/DTD/sodipodi-0.dtd" xmlns:svg="http://www.w3.org/2000/svg"
	 xmlns="http://www.w3.org/2000/svg" xmlns:xlink="http://www.w3.org/1999/xlink" x="0px" y="0px" viewBox="0 0 500 500"
	 style="enable-background:new 0 0 500 500;" xml:space="preserve">
<style type="text/css">
	.st0{fill:#FFFFFF;}
</style>
<g id="g24732" transform="matrix(2.3244229,0,0,2.3244229,-1572.0456,-1430.0838)">
	<path id="path24730" class="st0" d="M834.9,666.6c0,8.4-6.8,15.2-15.2,15.2s-15.2-6.8-15.2-15.2s6.8-15.2,15.2-15.2
		C828.1,651.4,834.9,658.2,834.9,666.6z"/>
	<path id="path24702" class="st0" d="M722.4,785.5c-0.1-0.2-0.1-5.5-0.1-11.5v-11.1h6h6c-0.1-16,0.1-32.2,0-48.1h-6.5h-6.2
		l-0.2-11.5l-0.2-11.5h6.6h6.6V685c0-16,9.5-25.7,26.1-29.8c10.1-2.1,15.6-1.4,25.9-1.2l0.2,12.3l0.2,12.3H780
		c-10.6,0-13.6,2.6-13.7,9.9v3.3c23.1,0,45.7,0,68.8,0c0,23.7,0,47.5,0,71.1h11.5c0,0,0-0.1,0,1.6c0.2,8.8-0.1,10.5,0,21
		c-0.3,0.3-12.8,0-27.5,0h-26.9v-11.2v-11.4c3.9,0,7.8,0,11.7,0c0-16.1,0-32.1,0-48.2c-10.9,0.1-27.9,0.1-37.6,0
		c-0.7,18.2-0.4,26.4,0,48.2c4.4,0.2,8.7-0.1,13.1,0l0.2,11.5l0.2,11.1h-28.6C735.4,785.5,722.5,785.7,722.4,785.5z"/>
</g>
</svg>
